<svg xmlns="http://www.w3.org/2000/svg" fill="none" height="29" viewBox="0 0 178 29" width="178">
    <g clip-path="url(#clip0_1_11)">
        <path
            d="M44.4439 23.826H48.3769V9.72702H54.0419V6.62302H38.7528V9.72702H44.4439V23.826ZM54.8708 23.826H58.7009V10.891H54.8708V23.826ZM54.6909 9.18402H58.8549V6.62302H54.6898V9.18302L54.6909 9.18402ZM69.8498 24.24C74.0658 24.24 75.7999 21.032 75.7999 17.359C75.7999 13.633 74.0658 10.477 69.8498 10.477C67.6248 10.477 66.1238 11.331 65.2188 12.806V10.89H61.3889V29H65.2188V21.886C66.1238 23.36 67.6258 24.24 69.8498 24.24ZM65.2188 17.359C65.2188 14.72 66.2528 13.479 68.6588 13.479C71.0908 13.479 71.9708 14.669 71.9708 17.359C71.9708 20.023 71.0908 21.239 68.6588 21.239C66.2528 21.239 65.2188 19.997 65.2188 17.359ZM83.6329 23.826H86.0648V20.773H82.7019V13.79H86.4268V10.89H82.7019V7.81302H80.7618L79.1828 10.865L76.5188 11.952V13.789H78.8728V19.169C78.8728 22.249 79.9589 23.826 83.6329 23.826ZM93.5448 24.24C95.7698 24.24 97.2188 23.36 98.0718 21.886V23.826H101.901V10.891H98.0718V12.806C97.2188 11.331 95.7698 10.477 93.5448 10.477C89.2758 10.477 87.7248 13.607 87.7248 17.359C87.7248 21.032 89.2768 24.24 93.5448 24.24ZM91.5268 17.359C91.5268 14.591 92.4068 13.479 94.7348 13.479C96.9848 13.479 98.0718 14.539 98.0718 17.359C98.0718 20.153 96.9858 21.239 94.7348 21.239C92.4068 21.239 91.5268 20.101 91.5268 17.359ZM113.1 24.24C117.317 24.24 119.05 21.032 119.05 17.359C119.05 13.633 117.317 10.477 113.1 10.477C110.875 10.477 109.375 11.331 108.469 12.806V10.89H104.641V29H108.469V21.886C109.375 23.36 110.875 24.24 113.1 24.24ZM108.469 17.359C108.469 14.72 109.504 13.479 111.91 13.479C114.342 13.479 115.221 14.669 115.221 17.359C115.221 20.023 114.342 21.239 111.91 21.239C109.504 21.239 108.469 19.997 108.469 17.359ZM22.3049 4.04302C19.8698 2.06941 16.8293 0.994798 13.6948 1.00002C10.4348 1.00002 7.43885 2.14002 5.08685 4.04302H22.3049ZM0.779851 10.13C1.15952 9.05597 1.67217 8.03369 2.30585 7.08702H25.0849C25.7129 8.02602 26.2289 9.04702 26.6119 10.13H0.779851ZM0.0838507 16.217C-0.0279502 15.2058 -0.0279502 14.1853 0.0838507 13.174H27.3079C27.4198 14.1853 27.4198 15.2058 27.3079 16.217H0.0838507ZM2.30585 22.304C1.67217 21.3574 1.15952 20.3351 0.779851 19.261H26.6129C26.2329 20.3351 25.7199 21.3574 25.0859 22.304H2.30585ZM22.3049 25.348C19.8698 27.3216 16.8293 28.3962 13.6948 28.391C10.4348 28.391 7.43885 27.251 5.08685 25.348H22.3049Z"
            fill="currentColor"
        />
    </g>
    <path
        clip-rule="evenodd"
        d="M178 28.5023L162 1L146 28.5023H155.714L159.762 22.2984H156.811L162 14.1507L167.189 22.2984H164.239L168.287 28.5023H178Z"
        fill="#FF7043"
        fill-rule="evenodd"
    />
    <path
        d="M133.955 21.8068V10.5568H135.864V21.8068H133.955ZM129.284 17.1364V15.2273H140.534V17.1364H129.284Z"
        fill="currentColor"
    />
    <defs>
        <clipPath id="clip0_1_11">
            <rect fill="white" height="28" transform="translate(0 1)" width="120" />
        </clipPath>
    </defs>
</svg>
